<?xml version="1.0" standalone="no"?>
<!DOCTYPE svg PUBLIC "-//W3C//DTD SVG 20010904//EN"
 "http://www.w3.org/TR/2001/REC-SVG-20010904/DTD/svg10.dtd">
<svg version="1.0" xmlns="http://www.w3.org/2000/svg"
 width="588.000000pt" height="540.000000pt" viewBox="0 0 588.000000 540.000000"
 preserveAspectRatio="xMidYMid meet">

<g transform="translate(0.000000,540.000000) scale(0.100000,-0.100000)"
fill="#000000" stroke="none">
<path d="M0 2700 l0 -2700 2940 0 2940 0 0 2700 0 2700 -2940 0 -2940 0 0
-2700z m1138 1966 c1 -101 -2 -184 -7 -189 -5 -5 -48 -11 -95 -13 l-85 -5 -38
34 c-36 33 -37 37 -37 103 -1 56 3 75 22 101 24 34 95 67 133 61 21 -3 24 1
27 32 4 56 9 62 44 58 l33 -3 3 -179z m2342 158 c6 -14 10 -37 10 -51 0 -23 3
-25 34 -19 43 8 99 -13 121 -47 12 -19 15 -46 13 -128 l-3 -104 -35 0 -35 0
-5 95 c-6 106 -11 120 -44 120 -38 0 -46 -19 -46 -106 0 -45 -3 -89 -6 -98 -8
-22 -70 -22 -78 0 -12 31 -7 339 6 352 21 21 58 14 68 -14z m1130 7 c5 -11 10
-34 10 -51 0 -31 1 -32 34 -26 44 8 95 -12 125 -50 20 -25 22 -38 19 -102 -3
-71 -5 -76 -41 -108 -36 -33 -39 -34 -117 -32 -111 2 -110 1 -110 196 0 87 5
162 10 173 6 11 21 19 35 19 14 0 29 -8 35 -19z m-3939 -7 c11 -14 10 -19 -9
-34 -20 -17 -22 -26 -22 -136 0 -108 2 -120 23 -142 22 -23 22 -24 2 -38 -29
-21 -134 -15 -149 8 -8 14 -6 22 12 38 20 19 22 30 22 130 0 97 -2 112 -20
130 -23 23 -26 46 -7 53 6 3 40 6 73 6 45 1 65 -3 75 -15z m2417 4 c18 -18 15
-36 -8 -48 -39 -21 -85 15 -59 46 14 17 51 18 67 2z m-748 -43 c4 -25 10 -31
37 -33 66 -6 66 -58 0 -64 l-32 -3 -3 -68 c-3 -77 6 -97 48 -97 35 0 49 -29
24 -47 -30 -22 -89 -16 -123 13 -30 25 -31 29 -31 100 0 47 -6 86 -15 104 -13
26 -13 33 -1 62 8 18 17 41 20 51 4 14 14 17 38 15 28 -3 34 -8 38 -33z m1620
0 c4 -25 10 -31 37 -33 67 -7 65 -62 -3 -62 l-34 0 0 -75 c0 -79 10 -95 60
-95 28 0 38 -29 15 -46 -34 -25 -93 -17 -126 15 -27 27 -29 35 -29 106 0 46
-6 87 -14 103 -12 24 -12 30 0 47 8 10 14 28 14 40 0 30 9 36 45 33 25 -2 31
-8 35 -33z m-2609 -35 c57 -16 92 -60 97 -123 8 -102 -45 -167 -138 -167 -76
0 -126 45 -136 123 -11 79 23 141 91 165 39 14 44 14 86 2z m520 -13 c37 -23
49 -62 49 -155 0 -83 -2 -92 -22 -106 -28 -20 -33 -20 -52 0 -12 11 -16 36
-16 99 0 46 -3 90 -6 99 -7 19 -57 21 -72 3 -6 -7 -13 -56 -14 -108 l-3 -94
-29 -3 c-16 -2 -33 1 -38 6 -5 5 -10 65 -9 132 0 135 4 144 57 135 17 -3 42
-1 55 4 26 11 73 5 100 -12z m262 9 c18 -7 45 -28 60 -45 22 -27 27 -42 27
-89 0 -69 -14 -99 -59 -129 -74 -50 -175 -20 -207 62 -49 129 60 251 179 201z
m1202 -8 c18 -8 25 -18 23 -32 -3 -19 -9 -21 -70 -17 -63 3 -68 1 -68 -17 0
-16 12 -24 55 -37 65 -18 95 -44 95 -81 0 -59 -48 -94 -130 -94 -51 0 -88 12
-102 34 -10 14 -10 18 1 35 7 11 18 11 64 0 45 -9 59 -9 71 0 23 19 8 39 -33
46 -117 20 -146 120 -49 166 45 21 94 20 143 -3z m896 11 c21 -7 51 -25 66
-41 25 -26 28 -36 28 -96 0 -103 -45 -152 -137 -152 -90 0 -145 68 -135 168 7
62 40 106 92 121 41 12 43 12 86 0z m783 -3 c43 -18 76 -61 76 -100 0 -48 -15
-56 -100 -56 -42 0 -79 -3 -83 -6 -11 -12 17 -55 40 -60 13 -4 44 -1 69 5 52
13 64 9 64 -23 0 -72 -194 -57 -243 18 -21 31 -22 117 -3 154 36 69 110 97
180 68z m-2345 -15 c11 -11 23 -37 27 -58 11 -60 16 -60 34 -2 21 68 57 94 88
65 11 -9 26 -37 33 -62 7 -24 16 -44 20 -44 4 0 12 23 19 51 14 58 46 83 76
59 18 -16 17 -26 -15 -145 -31 -118 -36 -125 -71 -125 -28 0 -34 6 -56 55 -13
31 -24 65 -24 76 0 36 -17 11 -34 -50 -19 -66 -45 -94 -79 -82 -20 8 -35 39
-56 121 -7 25 -17 59 -22 76 -13 42 -11 71 4 77 23 10 37 7 56 -12z m415 3
c13 -12 16 -39 16 -129 0 -90 -3 -117 -16 -129 -22 -23 -41 -20 -60 9 -14 21
-16 44 -12 136 4 80 9 114 19 120 21 13 36 11 53 -7z m-987 -726 c15 -7 82
-15 148 -19 151 -10 234 -19 240 -29 7 -11 -36 -46 -70 -57 -26 -8 -30 -15
-33 -51 -2 -23 1 -50 7 -59 10 -17 10 -17 11 2 1 19 2 19 10 -2 6 -15 3 -32
-11 -59 -23 -46 -24 -73 -4 -79 8 -3 22 -7 31 -10 8 -3 12 -10 9 -15 -4 -7
-11 -8 -18 -1 -8 6 -16 4 -25 -5 -11 -12 -7 -14 21 -14 19 0 40 -7 47 -15 7
-9 15 -13 18 -10 9 9 32 -17 32 -35 0 -10 -6 -21 -12 -23 -7 -3 2 -6 19 -6 26
-1 43 8 75 39 24 24 47 39 55 35 8 -3 20 -5 27 -5 7 0 28 -16 47 -35 19 -19
50 -47 70 -60 31 -22 43 -25 92 -20 43 4 59 1 71 -11 31 -30 14 -84 -26 -84
-27 0 -51 -44 -43 -79 9 -40 -5 -62 -67 -107 -29 -21 -59 -46 -66 -56 -7 -10
-18 -18 -24 -18 -6 0 -24 -14 -39 -31 -22 -25 -27 -38 -22 -63 3 -17 8 -33 10
-36 9 -9 263 -3 286 7 12 6 61 23 110 38 48 15 90 31 93 36 3 5 16 9 30 9 13
0 24 5 24 10 0 6 6 10 13 10 19 0 77 68 77 90 0 16 10 17 115 12 64 -3 115 -1
115 4 0 5 3 20 7 33 5 20 3 23 -10 18 -12 -5 -17 -1 -17 13 0 12 5 17 14 14
14 -5 30 22 21 37 -4 5 0 6 7 4 7 -3 18 -15 23 -27 6 -12 17 -24 25 -26 13 -5
13 -3 1 11 -12 15 -11 17 10 17 41 0 177 -101 240 -177 9 -11 25 -26 36 -34
26 -18 76 -113 71 -136 -2 -12 -11 -2 -27 32 -32 68 -155 185 -195 185 -16 0
-38 8 -49 18 -19 16 -20 16 -14 -6 6 -25 -21 -46 -47 -36 -11 4 -19 -1 -24
-16 -8 -21 -8 -21 -20 4 -7 16 -20 26 -32 26 -27 0 -25 -12 5 -38 14 -12 25
-26 25 -31 0 -15 -58 -82 -97 -110 -21 -15 -44 -35 -52 -44 -7 -9 -18 -17 -23
-17 -18 0 -108 -83 -108 -101 0 -19 51 -66 87 -80 30 -11 29 -36 -1 -50 -13
-6 -34 -29 -47 -50 -13 -22 -37 -61 -54 -86 -16 -26 -34 -55 -40 -65 -5 -10
-16 -17 -23 -15 -8 1 -23 -16 -35 -38 -12 -22 -27 -47 -32 -55 -5 -8 -11 -23
-12 -33 -2 -10 -12 -35 -23 -56 -19 -39 -41 -51 -93 -51 -35 0 -58 -42 -39
-68 7 -9 15 -24 18 -32 7 -20 65 -56 102 -65 28 -6 30 -10 36 -63 4 -31 9 -69
12 -83 4 -20 -3 -36 -25 -62 -17 -19 -31 -42 -31 -51 0 -9 -4 -16 -10 -16 -5
0 -10 -12 -10 -27 -1 -43 -25 -124 -39 -133 -10 -5 -13 -36 -11 -111 3 -204 2
-224 -14 -254 -20 -37 -20 -61 -1 -116 9 -24 13 -49 11 -56 -10 -24 16 -64 36
-57 13 4 18 0 18 -15 0 -25 -17 -36 -33 -22 -9 7 -16 4 -26 -11 -9 -15 -20
-19 -44 -15 -25 3 -39 -2 -65 -24 -36 -32 -52 -35 -85 -17 -12 7 -35 11 -51 9
-33 -3 -86 41 -86 73 0 12 16 44 35 72 20 29 42 77 49 110 45 188 47 204 40
266 -12 114 17 103 -285 101 -151 -1 -278 3 -296 9 -40 12 -43 35 -7 69 14 13
33 38 41 54 30 61 111 116 256 174 28 11 28 11 11 43 -9 18 -35 53 -58 77 -22
24 -51 55 -64 68 -46 50 -100 13 -137 -95 -9 -26 -22 -58 -29 -72 -8 -18 -9
-35 -3 -58 9 -30 7 -35 -32 -75 -23 -23 -53 -66 -67 -94 -13 -29 -28 -53 -34
-53 -6 0 -48 -37 -93 -82 -91 -92 -127 -122 -189 -156 -24 -13 -53 -34 -66
-45 -20 -19 -36 -22 -110 -23 -48 0 -103 -6 -122 -12 -60 -21 -98 -5 -190 77
-19 17 -38 31 -41 31 -3 0 -11 11 -17 25 -11 23 -9 27 14 35 14 6 34 10 45 10
17 0 20 5 14 28 -4 18 -1 32 7 39 24 18 183 51 275 57 146 9 223 62 231 159 2
34 -1 58 -10 69 -12 16 -17 16 -53 3 -22 -8 -50 -14 -62 -15 -12 0 -32 -4 -45
-9 -13 -5 -58 -19 -102 -31 -64 -17 -84 -19 -106 -10 -22 9 -34 8 -58 -4 -35
-18 -78 -21 -87 -6 -3 6 -14 10 -23 10 -28 0 -45 16 -38 37 7 22 55 48 119 64
133 34 210 50 278 59 54 6 87 16 113 34 20 13 42 26 49 29 15 5 15 263 1 603
-9 214 -12 233 -33 268 -13 20 -21 40 -17 43 3 3 31 1 62 -6 94 -18 119 -15
191 29 45 27 79 40 102 40 44 0 108 17 117 31 12 20 -6 57 -35 68 -21 9 -51
10 -114 3 -76 -8 -93 -14 -137 -46 -68 -49 -91 -57 -144 -50 -53 8 -74 41 -56
88 5 15 10 49 10 76 0 36 5 52 18 62 10 7 27 26 37 41 18 29 110 77 146 77 21
0 51 40 70 92 7 21 21 40 30 43 29 9 131 27 194 34 59 6 85 15 85 30 0 13
-111 61 -154 67 -37 6 -45 3 -81 -29 -63 -56 -134 -87 -224 -97 -45 -5 -98
-13 -119 -17 -20 -4 -43 -6 -49 -5 -7 2 -13 -1 -13 -7 0 -5 -25 -19 -56 -31
-72 -27 -84 -18 -84 61 0 47 4 60 19 69 33 17 59 11 95 -21 l35 -30 15 29 c12
23 13 38 5 66 -5 20 -15 37 -22 37 -7 1 -19 2 -27 3 -8 0 -15 9 -14 19 0 9 1
30 2 45 3 37 79 162 120 197 18 15 40 44 48 64 19 47 45 63 119 71 33 4 63 8
67 9 4 0 19 -4 35 -11z m821 -26 c12 -8 29 -63 53 -164 7 -34 7 -58 -1 -90
-21 -76 -38 -83 -98 -43 -20 14 -45 25 -54 25 -18 0 -58 33 -58 48 0 17 41 51
55 46 8 -4 18 -24 21 -45 4 -21 11 -39 16 -39 5 0 6 9 3 20 -5 16 2 29 29 54
65 59 37 126 -53 126 -70 0 -89 -19 -94 -97 -2 -35 -7 -66 -10 -70 -4 -3 -7 1
-7 10 0 10 -10 17 -27 19 -28 3 -28 4 -27 69 2 63 19 110 49 131 14 10 187 10
203 0z m-361 -162 c38 -17 49 -46 22 -61 -15 -8 -24 -5 -44 15 -22 22 -36 74
-17 64 4 -3 21 -11 39 -18z m641 -333 c22 0 2 -40 -43 -84 -50 -50 -69 -53
-101 -17 -24 25 -33 64 -15 64 6 0 22 11 38 26 23 22 33 24 68 18 22 -4 46 -7
53 -7z m-1790 -2700 c6 -7 12 -30 14 -52 l3 -39 48 3 c91 5 127 -45 127 -175
0 -78 -14 -114 -46 -114 -32 0 -44 31 -44 114 0 103 -12 126 -58 107 l-31 -13
-3 -96 c-2 -77 -6 -97 -20 -106 -13 -8 -23 -8 -35 0 -16 10 -18 32 -21 189 -3
185 -1 194 39 195 9 0 21 -6 27 -13z m-619 -33 c23 -19 31 -34 31 -59 0 -19
-4 -37 -10 -40 -17 -10 -11 -39 10 -53 11 -7 20 -19 20 -27 0 -8 5 -15 10 -15
6 0 10 10 10 23 0 12 9 36 20 54 56 92 214 81 246 -17 21 -64 9 -74 -91 -80
-49 -3 -90 -10 -92 -15 -2 -6 6 -21 17 -33 22 -23 74 -29 115 -13 28 12 45 3
45 -24 0 -29 -46 -49 -110 -48 -57 1 -101 22 -130 63 l-22 31 -32 -35 c-39
-43 -79 -56 -177 -56 -67 0 -80 3 -89 19 -11 21 -14 308 -4 335 5 13 24 16
104 16 91 0 101 -2 129 -26z m1081 -103 c26 -30 30 -44 30 -94 0 -95 -49 -149
-134 -151 -59 -1 -97 22 -124 74 -35 68 -18 161 37 197 64 42 145 31 191 -26z
m127 38 c9 -9 23 -9 57 1 37 10 49 10 61 0 9 -7 24 -10 37 -6 13 4 59 9 104
12 77 5 83 4 113 -21 l31 -27 0 -114 c0 -113 0 -114 -25 -120 -45 -11 -55 9
-55 112 0 82 -2 95 -19 104 -21 10 -51 4 -63 -14 -4 -6 -8 -48 -8 -93 0 -84
-12 -113 -47 -113 -32 0 -42 32 -43 134 0 85 -2 97 -16 92 -9 -3 -28 -6 -42
-6 -50 0 -57 -12 -62 -111 -4 -73 -9 -94 -22 -103 -13 -8 -23 -8 -35 0 -15 9
-18 30 -21 134 -3 121 4 150 32 150 7 0 17 -5 23 -11z m499 -11 c11 -13 25
-34 31 -48 40 -94 39 -94 74 -6 26 64 57 89 84 66 8 -7 15 -17 15 -23 0 -25
-134 -324 -152 -339 -24 -22 -29 -22 -53 -4 -19 14 -19 15 -2 50 21 44 22 78
3 119 -7 18 -23 53 -34 78 -39 88 -41 129 -4 129 10 0 27 -10 38 -22z m605 -1
l34 -23 3 -114 c3 -124 -1 -135 -50 -124 -16 3 -43 1 -61 -5 -51 -17 -107 4
-131 50 -17 32 -18 40 -6 69 15 37 74 69 127 70 35 0 53 17 32 31 -8 5 -38 8
-68 7 -42 -2 -56 1 -65 15 -30 48 120 68 185 24z m315 -1 c28 -23 29 -28 32
-130 4 -112 -3 -136 -39 -136 -28 0 -34 18 -39 118 -6 101 -14 115 -59 103
-25 -7 -26 -10 -31 -105 -5 -95 -13 -116 -45 -116 -32 0 -40 21 -43 115 -5
117 3 163 26 167 9 2 51 4 93 6 69 3 80 0 105 -22z m125 14 c10 0 59 -97 59
-117 0 -35 30 -6 54 52 17 38 36 67 47 70 23 8 62 -12 56 -28 -3 -7 -30 -71
-60 -143 -69 -165 -83 -191 -106 -204 -41 -22 -65 15 -40 61 6 11 11 33 11 49
1 27 -56 185 -74 205 -20 23 3 71 30 60 8 -3 18 -5 23 -5z m456 -2 c25 -9 36
-9 45 0 15 15 92 16 120 1 32 -17 48 -71 48 -159 0 -113 -24 -147 -72 -103
-15 13 -18 32 -18 108 0 81 -2 93 -18 97 -10 3 -28 1 -40 -3 -20 -8 -22 -15
-22 -98 0 -91 -11 -121 -44 -121 -25 0 -34 25 -41 115 -4 50 -12 95 -17 102
-5 7 -19 8 -36 4 -27 -7 -27 -9 -32 -105 -4 -71 -9 -99 -20 -106 -22 -14 -36
-12 -54 6 -21 21 -23 235 -3 256 18 17 161 21 204 6z m458 -8 c47 -29 69 -81
61 -144 -10 -85 -59 -130 -143 -128 -82 1 -133 55 -133 143 0 93 50 148 134
149 32 0 60 -7 81 -20z m164 8 c15 -9 25 -9 46 0 37 17 52 15 76 -9 26 -26 10
-49 -33 -49 -60 0 -68 -12 -68 -105 0 -85 -12 -115 -45 -115 -36 0 -45 28 -45
150 0 103 2 120 18 129 22 13 28 13 51 -1z m334 1 c32 -18 56 -50 63 -87 10
-51 -6 -62 -97 -62 -43 0 -81 -5 -84 -10 -4 -6 1 -22 10 -36 15 -24 21 -25 88
-22 66 3 72 1 72 -17 0 -46 -133 -65 -196 -28 -60 35 -86 130 -54 192 27 53
71 81 126 81 28 0 60 -5 72 -11z"/>
<path d="M977 4672 c-25 -27 -23 -113 2 -136 17 -16 23 -16 48 -4 27 13 28 16
28 83 l0 70 -31 3 c-20 2 -36 -3 -47 -16z"/>
<path d="M4632 4678 c-18 -18 -16 -147 3 -154 45 -18 85 24 85 89 0 60 -53
100 -88 65z"/>
<path d="M1270 4671 c-5 -11 -10 -42 -10 -69 0 -53 20 -82 57 -82 32 0 47 27
47 85 0 29 -6 60 -13 69 -19 23 -68 21 -81 -3z"/>
<path d="M2040 4671 c-15 -29 -12 -104 6 -129 17 -25 56 -29 73 -8 19 23 24
81 11 120 -10 32 -15 36 -45 36 -24 0 -38 -6 -45 -19z"/>
<path d="M4152 4678 c-20 -20 -15 -122 6 -141 45 -41 82 -9 82 72 0 63 -11 81
-50 81 -14 0 -31 -5 -38 -12z"/>
<path d="M4933 4690 c-13 -5 -23 -16 -23 -25 0 -11 11 -15 45 -15 38 0 45 3
45 20 0 11 -4 20 -9 20 -5 0 -15 2 -23 4 -7 3 -23 1 -35 -4z"/>
<path d="M2000 3809 c0 -6 -6 -9 -13 -6 -8 3 -14 0 -14 -6 0 -7 -3 -22 -7 -34
-10 -33 17 -30 43 3 25 31 27 54 6 54 -8 0 -15 -5 -15 -11z"/>
<path d="M640 685 c0 -41 16 -51 57 -38 22 8 28 16 28 39 0 27 -3 29 -42 32
l-43 3 0 -36z"/>
<path d="M961 626 c-19 -23 -4 -36 40 -36 36 0 40 2 37 23 -4 27 -58 37 -77
13z"/>
<path d="M642 528 c3 -52 4 -53 36 -56 45 -5 82 21 82 56 0 40 -17 52 -73 52
l-48 0 3 -52z"/>
<path d="M1726 618 c-9 -12 -16 -41 -16 -63 0 -50 23 -85 55 -85 32 0 55 35
55 83 0 75 -59 115 -94 65z"/>
<path d="M3013 543 c-52 -10 -55 -73 -4 -73 34 0 54 21 49 51 -3 24 -11 28
-45 22z"/>
<path d="M4336 618 c-37 -53 -8 -148 45 -148 34 0 50 25 51 80 1 77 -60 120
-96 68z"/>
<path d="M4844 625 c-9 -23 5 -35 41 -35 39 0 52 14 35 35 -16 19 -69 19 -76
0z"/>
</g>
</svg>
